<svg viewBox="0 0 1200 600" xmlns="http://www.w3.org/2000/svg">
  <!-- Background gradient -->
  <defs>
    <linearGradient id="bgGradient" x1="0%" y1="0%" x2="100%" y2="100%">
      <stop offset="0%" style="stop-color:#f0f9ff;stop-opacity:1" />
      <stop offset="100%" style="stop-color:#e0f2fe;stop-opacity:1" />
    </linearGradient>
    
    <!-- Shadow filter -->
    <filter id="shadow" x="-50%" y="-50%" width="200%" height="200%">
      <feGaussianBlur in="SourceAlpha" stdDeviation="3"/>
      <feOffset dx="0" dy="4" result="offsetblur"/>
      <feFlood flood-color="#000000" flood-opacity="0.1"/>
      <feComposite in2="offsetblur" operator="in"/>
      <feMerge>
        <feMergeNode/>
        <feMergeNode in="SourceGraphic"/>
      </feMerge>
    </filter>
    
    <!-- Grid pattern -->
    <pattern id="grid" width="50" height="50" patternUnits="userSpaceOnUse">
      <path d="M 50 0 L 0 0 0 50" fill="none" stroke="#e5e7eb" stroke-width="0.5"/>
    </pattern>
  </defs>
  
  <!-- Background -->
  <rect width="1200" height="600" fill="url(#bgGradient)"/>
  
  <!-- Main application window -->
  <g transform="translate(100, 80)">
    <!-- Application frame -->
    <rect x="0" y="0" width="1000" height="440" rx="8" fill="#ffffff" filter="url(#shadow)"/>
    
    <!-- Header bar -->
    <rect x="0" y="0" width="1000" height="50" rx="8 8 0 0" fill="#001529"/>
    <text x="20" y="32" font-family="Arial, sans-serif" font-size="18" font-weight="600" fill="#ffffff">
      PDF Field Mapper for Adobe Sign
    </text>
    
    <!-- Toolbar -->
    <rect x="0" y="50" width="1000" height="60" fill="#f0f2f5"/>
    
    <!-- Upload button -->
    <g transform="translate(20, 65)">
      <rect x="0" y="0" width="120" height="32" rx="4" fill="#1890ff"/>
      <text x="60" y="21" font-family="Arial, sans-serif" font-size="14" text-anchor="middle" fill="#ffffff">
        Upload PDF
      </text>
    </g>
    
    <!-- Page navigation -->
    <g transform="translate(160, 65)">
      <rect x="0" y="0" width="140" height="32" rx="4" fill="#ffffff" stroke="#d9d9d9"/>
      <text x="70" y="21" font-family="Arial, sans-serif" font-size="14" text-anchor="middle" fill="#262626">
        Page 1 / 3
      </text>
    </g>
    
    <!-- Drawing mode toggle -->
    <g transform="translate(320, 65)">
      <rect x="0" y="0" width="150" height="32" rx="4" fill="#52c41a"/>
      <text x="75" y="21" font-family="Arial, sans-serif" font-size="14" text-anchor="middle" fill="#ffffff">
        Drawing Mode ON
      </text>
    </g>
    
    <!-- Field type selector -->
    <g transform="translate(490, 65)">
      <rect x="0" y="0" width="180" height="32" rx="4" fill="#ffffff" stroke="#d9d9d9"/>
      <text x="15" y="21" font-family="Arial, sans-serif" font-size="14" fill="#262626">
        Signature Field
      </text>
    </g>
    
    <!-- Main content area -->
    <g transform="translate(0, 110)">
      <!-- PDF viewer area -->
      <rect x="20" y="20" width="630" height="290" fill="#f5f5f5" stroke="#e8e8e8"/>
      
      <!-- Grid overlay -->
      <rect x="20" y="20" width="630" height="290" fill="url(#grid)" opacity="0.3"/>
      
      <!-- Sample PDF page -->
      <rect x="80" y="40" width="510" height="250" fill="#ffffff" filter="url(#shadow)"/>
      
      <!-- PDF content lines (simulating text) -->
      <g opacity="0.3">
        <rect x="100" y="60" width="300" height="8" fill="#e5e7eb"/>
        <rect x="100" y="75" width="250" height="8" fill="#e5e7eb"/>
        <rect x="100" y="90" width="280" height="8" fill="#e5e7eb"/>
        <rect x="100" y="105" width="320" height="8" fill="#e5e7eb"/>
        
        <rect x="100" y="130" width="290" height="8" fill="#e5e7eb"/>
        <rect x="100" y="145" width="310" height="8" fill="#e5e7eb"/>
        <rect x="100" y="160" width="270" height="8" fill="#e5e7eb"/>
      </g>
      
      <!-- Field overlays -->
      <!-- Text field -->
      <g>
        <rect x="100" y="180" width="200" height="30" fill="#1890ff" fill-opacity="0.2" stroke="#1890ff" stroke-width="2"/>
        <text x="105" y="195" font-family="Arial, sans-serif" font-size="11" fill="#1890ff">Full Name</text>
        <text x="105" y="207" font-family="Arial, sans-serif" font-size="9" fill="#666">SIGNER</text>
      </g>
      
      <!-- Email field -->
      <g>
        <rect x="320" y="180" width="220" height="30" fill="#13c2c2" fill-opacity="0.2" stroke="#13c2c2" stroke-width="2"/>
        <text x="325" y="195" font-family="Arial, sans-serif" font-size="11" fill="#13c2c2">Email Address</text>
        <text x="325" y="207" font-family="Arial, sans-serif" font-size="9" fill="#666">SIGNER</text>
      </g>
      
      <!-- Date field -->
      <g>
        <rect x="100" y="220" width="150" height="30" fill="#fa8c16" fill-opacity="0.2" stroke="#fa8c16" stroke-width="2"/>
        <text x="105" y="235" font-family="Arial, sans-serif" font-size="11" fill="#fa8c16">Date</text>
        <text x="105" y="247" font-family="Arial, sans-serif" font-size="9" fill="#666">(100, 220)</text>
      </g>
      
      <!-- Signature field with drawing preview -->
      <g>
        <rect x="270" y="220" width="270" height="50" fill="#52c41a" fill-opacity="0.2" stroke="#52c41a" stroke-width="2" stroke-dasharray="5,5"/>
        <text x="275" y="235" font-family="Arial, sans-serif" font-size="11" fill="#52c41a">Signature</text>
        <text x="275" y="247" font-family="Arial, sans-serif" font-size="9" fill="#666">SIGNER</text>
        <text x="530" y="235" font-family="Arial, sans-serif" font-size="12" fill="#ff0000">*</text>
      </g>
      
      <!-- Coordinate display during drawing -->
      <text x="270" y="215" font-family="Arial, sans-serif" font-size="10" fill="#000">L: 270, T: 220, W: 270, H: 50</text>
      
      <!-- Sidebar -->
      <rect x="670" y="0" width="310" height="330" fill="#fafafa" stroke="#f0f0f0"/>
      
      <!-- Sidebar header -->
      <rect x="670" y="0" width="310" height="50" fill="#ffffff" stroke="#f0f0f0"/>
      <text x="690" y="30" font-family="Arial, sans-serif" font-size="16" font-weight="600" fill="#262626">Form Fields</text>
      
      <!-- Export button -->
      <g transform="translate(850, 15)">
        <rect x="0" y="0" width="100" height="28" rx="4" fill="#1890ff"/>
        <text x="50" y="19" font-family="Arial, sans-serif" font-size="12" text-anchor="middle" fill="#ffffff">Export JSON</text>
      </g>
      
      <!-- Field list items -->
      <g transform="translate(680, 60)">
        <!-- Field 1 -->
        <rect x="0" y="0" width="280" height="70" rx="4" fill="#ffffff" stroke="#e8e8e8" stroke-width="1"/>
        <circle cx="20" cy="35" r="15" fill="#1890ff" fill-opacity="0.1"/>
        <text x="20" y="40" font-family="Arial, sans-serif" font-size="16" text-anchor="middle" fill="#1890ff">T</text>
        <text x="50" y="25" font-family="Arial, sans-serif" font-size="14" font-weight="600" fill="#262626">Full Name</text>
        <text x="50" y="40" font-family="Arial, sans-serif" font-size="12" fill="#8c8c8c">TEXT_FIELD</text>
        <rect x="50" y="48" width="60" height="16" rx="8" fill="#1890ff"/>
        <text x="80" y="59" font-family="Arial, sans-serif" font-size="10" text-anchor="middle" fill="#ffffff">TEXT FIELD</text>
        <rect x="115" y="48" width="45" height="16" rx="8" fill="#ff4d4f"/>
        <text x="137" y="59" font-family="Arial, sans-serif" font-size="10" text-anchor="middle" fill="#ffffff">Required</text>
        
        <!-- Field 2 -->
        <rect x="0" y="80" width="280" height="70" rx="4" fill="#ffffff" stroke="#e8e8e8" stroke-width="1"/>
        <circle cx="20" cy="115" r="15" fill="#52c41a" fill-opacity="0.1"/>
        <text x="20" y="120" font-family="Arial, sans-serif" font-size="16" text-anchor="middle" fill="#52c41a">✓</text>
        <text x="50" y="105" font-family="Arial, sans-serif" font-size="14" font-weight="600" fill="#262626">Signature</text>
        <text x="50" y="120" font-family="Arial, sans-serif" font-size="12" fill="#8c8c8c">SIGNATURE</text>
        <rect x="50" y="128" width="60" height="16" rx="8" fill="#52c41a"/>
        <text x="80" y="139" font-family="Arial, sans-serif" font-size="10" text-anchor="middle" fill="#ffffff">SIGNATURE</text>
      </g>
    </g>
  </g>
  
  <!-- Title and tagline -->
  <text x="600" y="40" font-family="Arial, sans-serif" font-size="32" font-weight="bold" text-anchor="middle" fill="#1e293b">
    PDF Field Mapper for Adobe Sign
  </text>
  <text x="600" y="65" font-family="Arial, sans-serif" font-size="18" text-anchor="middle" fill="#64748b">
    Visual form field mapping made simple
  </text>
  
  <!-- Feature highlights -->
  <g transform="translate(150, 540)">
    <!-- Feature 1 -->
    <circle cx="0" cy="0" r="4" fill="#1890ff"/>
    <text x="10" y="4" font-family="Arial, sans-serif" font-size="14" fill="#475569">Draw fields directly on PDFs</text>
    
    <!-- Feature 2 -->
    <circle cx="300" cy="0" r="4" fill="#52c41a"/>
    <text x="310" y="4" font-family="Arial, sans-serif" font-size="14" fill="#475569">Export to Adobe Sign format</text>
    
    <!-- Feature 3 -->
    <circle cx="600" cy="0" r="4" fill="#fa8c16"/>
    <text x="610" y="4" font-family="Arial, sans-serif" font-size="14" fill="#475569">Save and reuse configurations</text>
  </g>
</svg>